<?xml version="1.0" standalone="no"?>
<!DOCTYPE svg PUBLIC "-//W3C//DTD SVG 20010904//EN"
 "http://www.w3.org/TR/2001/REC-SVG-20010904/DTD/svg10.dtd">
<svg version="1.0" xmlns="http://www.w3.org/2000/svg"
 width="1711.000000pt" height="1995.000000pt" viewBox="0 0 1711.000000 1995.000000"
 preserveAspectRatio="xMidYMid meet">
<metadata>
Created by potrace 1.14, written by Peter Selinger 2001-2017
</metadata>
<g transform="translate(0.000000,1995.000000) scale(0.100000,-0.100000)"
fill="#000000" stroke="none">
<path d="M16 12083 c-3 -3535 -9 -7386 -12 -8558 l-6 -2130 1213 -696 c1210
-694 1214 -696 1239 -679 14 9 228 135 475 280 248 145 945 553 1550 908 1286
753 2897 1697 4325 2534 558 327 1555 911 2215 1298 1808 1060 2967 1739 4360
2555 693 406 1361 798 1485 870 l225 132 3 1397 c1 768 0 1396 -3 1396 -2 0
-69 -38 -147 -83 -79 -46 -186 -109 -238 -139 -52 -30 -403 -234 -780 -453
-377 -219 -725 -422 -775 -450 -49 -29 -340 -198 -645 -375 -305 -177 -638
-371 -740 -430 -102 -59 -520 -302 -930 -540 -410 -238 -963 -560 -1230 -715
-405 -235 -5229 -3038 -5252 -3052 -5 -2 -8 -2 -8 0 0 3 94 60 210 128 l210
124 0 1337 0 1337 -202 -114 c-112 -62 -567 -318 -1013 -568 l-810 -455 -3
3051 c-1 1678 0 3052 2 3054 3 4 915 -542 4388 -2623 471 -283 862 -516 870
-519 8 -3 486 258 1074 588 582 326 1150 644 1262 707 176 98 200 114 185 125
-10 7 -619 358 -1353 780 -734 422 -1465 843 -1625 935 -159 92 -891 513
-1625 935 -1283 738 -7256 4177 -7662 4411 -108 63 -203 117 -211 120 -12 4
-15 -894 -21 -6423z"/>
</g>
</svg>
